<?xml version="1.0" encoding="UTF-8" standalone="no"?>
<!-- Created with Inkscape (http://www.inkscape.org/) -->

<svg
   width="64mm"
   height="64mm"
   viewBox="0 0 64 64.000001"
   version="1.1"
   id="svg1"
   inkscape:version="1.4 (e7c3feb1, 2024-10-09)"
   sodipodi:docname="uob-square.svg"
   xmlns:inkscape="http://www.inkscape.org/namespaces/inkscape"
   xmlns:sodipodi="http://sodipodi.sourceforge.net/DTD/sodipodi-0.dtd"
   xmlns="http://www.w3.org/2000/svg"
   xmlns:svg="http://www.w3.org/2000/svg">
  <sodipodi:namedview
     id="namedview1"
     pagecolor="#ffffff"
     bordercolor="#000000"
     borderopacity="0.25"
     inkscape:showpageshadow="2"
     inkscape:pageopacity="0.0"
     inkscape:pagecheckerboard="0"
     inkscape:deskcolor="#d1d1d1"
     inkscape:document-units="mm"
     inkscape:zoom="3.638591"
     inkscape:cx="109.65783"
     inkscape:cy="170.25821"
     inkscape:window-width="1504"
     inkscape:window-height="998"
     inkscape:window-x="1494"
     inkscape:window-y="877"
     inkscape:window-maximized="0"
     inkscape:current-layer="layer1"
     showgrid="false" />
  <defs
     id="defs1" />
  <g
     inkscape:label="Layer 1"
     inkscape:groupmode="layer"
     id="layer1"
     transform="translate(-65.423157,-88.145363)">
    <rect
       style="fill:#ffffff;stroke-width:0.264583"
       id="rect1"
       width="64"
       height="64"
       x="65.423157"
       y="88.145363" />
    <g
       id="g26"
       transform="matrix(0.21033064,0,0,0.21033064,75.297425,97.62801)">
      <path
         class="cls-2"
         d="m 140.49,95.79 c -0.09,-7.35 -2.59,-22.37 -20.17,-30.9 17.86,5.67 26.44,20.76 27.32,32.01 18.75,3.74 35.38,12.56 62.39,3.24 l 0.09,-0.06 c 0,0 -35.54,0.32 -50.41,-10.43 7.68,0.29 16.51,-1.45 19.41,-5.79 3.09,-4.63 3.41,-9.41 11.01,-9.66 4.27,-0.14 18.76,0.94 20.28,-20.33 -4.63,7.82 -9.66,11.06 -17.24,9.13 -4.84,-1.23 -13.67,-4.94 -19.99,2.61 -5.21,6.23 -10.81,9.46 -19.75,8.5 3.59,-4.82 56.84,-73.96 56.84,-73.96 0,0 -68.22,54.75 -71.99,57.94 -0.72,-9.99 2.27,-13.66 6.28,-18.06 3.28,-3.59 8.98,-8.46 4.44,-18.73 -3.67,-8.3 -3.19,-13.33 6.81,-21.29 -7.97,0.58 -20.12,5.94 -18.69,20.57 0.87,8.84 -5.39,9.6 -7.68,10.86 -5.94,3.28 -6.71,12.84 -6.9,20.28 -0.68,-2.41 -9.32,-39.57 -12.36,-51.59 0,0 0,99.97 0,99.97 h 0.23 c 11.58,-4.56 21.21,-5.26 30.08,-4.3 z"
         id="path7"
         style="fill:#b01c2e;stroke-width:0px" />
      <path
         class="cls-2"
         d="m 209.97,110.37 c -45.05,14.77 -60.4,-16.51 -99.8,0 -0.02,0 0,100.09 0,100.09 42.87,-15.93 44.47,13.47 99.8,0 z m -81.7,51.25 c -0.23,0.11 -0.35,0.34 -0.42,0.47 -0.42,0.87 -1.69,5.38 -2.03,6.64 -0.34,1.25 -0.7,1.45 -1.4,1.66 -0.58,0.18 -0.66,1.57 -0.12,1.74 1.64,0.51 1.28,1.55 1.16,1.8 0,0.3 -0.55,3.18 -2.59,5.22 -1.06,-2.07 -1.32,-4.15 -1.51,-4.63 -0.19,-0.48 -0.27,-1.11 -0.22,-1.59 0.05,-0.48 -0.11,-2.56 -0.16,-3.09 -0.05,-0.53 0.19,-1 0.41,-1.4 0.41,-0.75 3.21,-6.04 4.47,-9.27 0.47,-1.2 3.26,-2.39 3.93,-2.1 0.76,0.32 1.67,1.42 5.72,3.07 0.1,1.11 0.34,3.33 0.92,4.25 -0.92,0.38 -2.41,0.53 -2.41,0.53 0,0 -3.35,-2.71 -3.99,-3.36 -0.1,-0.11 -0.44,-0.3 -0.62,-0.27 -0.36,0.06 -0.79,0.18 -1.15,0.34 z m 37.97,32.53 c -0.68,-0.55 -1.77,0.4 -1.21,1.28 0.68,1.07 0.63,1.69 0.63,1.69 0,0 -2.17,2.56 -5.21,3.04 -0.29,-0.29 0.77,-4.27 1.88,-6.47 0.91,-1.8 1.3,-2.15 2.53,-2.73 1.23,-0.58 6.16,-3.07 7.75,-4.37 1.59,-1.3 2.25,-3.24 2.25,-3.24 0,0 1.47,1.93 3.4,3.84 -0.43,0.7 -9.92,6.73 -10.36,7.1 -0.43,0.36 -1.15,0.28 -1.67,-0.14 z m 21.77,-5.09 c -0.36,0.65 -4.61,7.87 -5.7,10.45 -0.58,1.37 -1.23,1.09 -1.59,1.16 -0.36,0.07 -1.52,0.29 -1.4,1.57 0.09,0.91 -0.08,1.29 -0.08,1.29 h -7.31 c 0.31,-1.06 1.03,-2.43 3.87,-3.95 0.91,-0.48 1.98,-1.49 2.8,-2.7 0.43,-0.63 2.94,-5.14 3.38,-6.18 0.35,-0.84 0.24,-2.12 -0.19,-2.85 -0.44,-0.72 -1.11,-1.98 -2.08,-2.75 -3.24,-2.59 -5.17,-4.64 -7.89,-9.92 -0.45,-0.87 0.09,-1.85 -4.61,-0.6 -11.25,2.99 -19.43,-1.13 -19.8,-1.45 0.36,-2.15 1.23,-3.96 -0.04,-4.9 -0.69,1.38 -1.38,2.35 -2.57,3.69 -0.39,0.44 -0.87,0.29 -1.74,0.22 -0.87,-0.07 -6.52,-0.83 -7.46,-1.05 -0.39,-0.09 -1.99,0.4 -1.05,2.24 0.16,0.31 1.44,2.58 2.79,4.6 0.72,1.09 -0.04,1.77 0.15,2.61 0.18,0.81 0.58,1.09 0.87,1.01 0.29,-0.07 1.49,-1.51 2.44,-0.51 0.92,0.97 1.55,3.86 1.74,6.8 -0.8,0.07 -1.93,-0.29 -2.95,-1.08 -0.95,-0.74 -1.8,-2.13 -2.82,-2.9 -1.01,-0.76 -1.48,-0.73 -2.21,-1.38 -0.65,-0.59 -1.3,-1.02 -1.52,-2.83 -0.22,-1.81 -2.85,-7.7 -3.26,-8.37 -0.58,-0.94 0.53,-2.83 1.01,-3.41 0.43,-0.51 1.32,-0.57 2.38,-0.81 1.58,-0.36 4.25,-1.49 5.15,-1.8 -3.51,-6.65 0.69,-10.71 1.2,-11.04 1.18,-5.75 3.4,-8.91 4.27,-10.14 2.08,-0.44 4.14,-0.67 5.14,-4.85 0.56,-2.35 -0.51,-4.85 -1.3,-5.65 0.43,2.17 0.31,4.57 -0.87,6.34 -1.67,2.5 -4.47,2.16 -5.05,2.16 -0.58,0 -1.15,-0.11 -1.59,0.36 -0.39,0.41 -1.67,1.57 -2.53,2.05 -0.67,0.38 -0.56,0.72 -0.63,1.33 -0.07,0.58 -0.14,1 -0.79,1.1 -0.69,0.11 -1.72,-0.4 -2.26,-0.4 -1.04,0 -0.41,-0.56 0.18,-1.36 0.56,-0.76 0.72,-0.32 1.23,-0.44 0.65,-0.14 1.05,-0.35 1.56,-1.12 0.77,-1.17 -1.12,-1.37 -1.67,-0.8 -0.6,0.64 -1.41,1.74 -1.92,2.32 -0.51,0.58 -0.97,0.81 -1.23,0.11 -0.2,-0.52 -0.4,-1.52 -0.43,-2.03 -1.59,-0.44 -0.18,-2.17 -0.18,-2.17 l 4.67,-5.7 c 0,0 -1.05,-0.67 -0.29,-1.91 0.4,-0.65 3.22,-4.02 5.21,-5.43 -0.4,-1.12 -0.91,-2.24 -2.06,-3.37 1.77,0.33 3.22,0.25 5.98,3.15 0.71,0.75 1.49,0.52 1.23,-0.22 -0.29,-0.82 -0.76,-1.38 -1.74,-2.57 8.71,-2.31 12.92,5.36 13.54,6.23 -1.63,-0.11 -2.93,0.15 -3.72,0.4 -0.68,0.22 -0.63,0.51 0.39,0.63 2.89,0.34 3.33,0.46 4.16,0.71 1.2,1.37 1.85,4.75 1.77,4.89 -1.21,0.07 -2.75,-0.19 -4.44,0.05 -1.29,0.18 -0.85,0.76 -0.34,0.82 1.93,0.24 3.77,0.77 5.21,1.4 0.48,2.66 0.36,4.47 0.36,4.47 0,0 -3.38,-0.36 -4.27,-0.29 -0.89,0.07 -0.45,0.78 0.43,1.09 0.82,0.29 2.51,0.92 3.62,1.93 -0.01,0.79 -0.34,2.7 -0.68,3.67 -0.33,0.94 -0.07,1.77 1.47,2.08 4.21,0.84 7.8,1.39 14.27,1.26 11.39,-0.24 15.21,12.89 10.09,19.26 -2.4,2.98 -2.51,4.73 -2.32,5.79 0.49,2.66 1.93,5.05 4.39,6.5 1.3,0.77 -0.02,2.51 -0.39,3.16 z m 12.65,-48.33 c -3.42,2.89 0.21,8.43 -2.99,12.7 -1.74,2.9 -6.59,5.89 -11.3,2.99 2.75,-1.01 5.55,-3.32 3.98,-7.75 -2,-5.67 -4.66,-5.77 -7.8,-10.6 -2.4,-3.7 -3.72,-13.3 5.19,-16.42 -7.31,4.56 -2.97,12.89 -0.29,15.28 -4.66,-10.84 2.63,-15.86 7.03,-15.86 2.41,0 5.38,0.24 7.15,3.43 2.51,4.54 -1.16,7.87 -3.09,8.02 3.09,-1.45 2.94,-4.29 1.88,-5.75 -1.93,-2.66 -7.05,-1.45 -7.97,1.79 -1.4,4.94 2.46,7.72 3.84,10.91 1.95,-2.75 6.83,-3.09 8.91,-0.14 -2.08,0.1 -3.62,0.63 -4.54,1.4 z"
         id="path8"
         style="fill:#b01c2e;stroke-width:0px" />
      <path
         class="cls-2"
         d="m 125.44,174 c 0,0 0.01,-0.02 0.03,-0.06 0,-0.05 0,-0.04 -0.03,0.06 z"
         id="path9"
         style="fill:#b01c2e;stroke-width:0px" />
      <path
         class="cls-2"
         d="M 79.33,0.12 V 10.91 H 67.21 c 0,0 -0.48,0 -0.48,0 V 0.12 H 55.14 V 10.91 H 43.55 c 0,0 0,-10.79 0,-10.79 H 32.06 v 10.79 c 0,0 -0.43,0 -0.43,0 H 20.38 V 0.12 H 0 c 0,0 0,100.42 0,99.97 42.83,14.87 59.58,-15.84 99.8,0 V 0.12 Z m -2.12,33.6 c -4.06,8.11 -4.44,16.32 -3.67,20.47 -8.59,-2.22 -11.49,0 -11.49,0 0,0 0.19,-9.17 15.16,-20.47 z M 35.3,23.73 c 3.41,-1.42 3.28,-0.63 3.09,0.34 -0.19,0.97 -0.84,2.65 1.06,2.22 5.22,-1.17 9.81,-4.42 10.24,-4.73 v 6.28 c -0.76,0.36 -6.19,2.77 -10.91,3.09 -4.35,0.29 -2.41,-4.59 -2.41,-4.59 -0.36,0.24 -5.94,3.09 -10.53,2.85 -5.55,-0.29 -5.79,-3.43 -5.21,-4.1 0,0.48 0.72,4.44 14.68,-1.35 z M 17.72,88.77 C 36.07,93.89 48.81,80.46 61.37,78.73 47.71,78.54 40.27,84.19 35.78,84.72 33.46,83.03 30.86,78.85 29.99,74.29 29.27,70.52 25.5,69.9 25.5,69.9 l -0.58,-2.85 c 0,0 10.77,1.59 12.7,1.79 2.51,4.01 7.24,4.97 9.56,4.97 0,0 0.06,-6.79 0.05,-7.19 0.54,-0.76 2.46,-1.45 2.46,-1.45 l 0.1,8.54 c 5.89,0 10.43,-3.77 10.33,-7.34 -0.11,-4.06 -4.61,-7.58 -11.78,-7.44 -7.19,0.14 -9.75,3.67 -10.53,4.92 -8.55,-8.52 -4.64,-18.93 -4.64,-18.93 0,0 -7.39,4.97 -0.72,17.58 -7,-1.88 -12.75,1.79 -12.65,4.73 -0.05,2.7 2.08,4.78 6.33,4.93 -15.06,2.99 -18.44,-5.6 -11.2,-10.24 q 3.38,0.58 5.7,1.06 c -7.34,-7.34 -3.78,-16.33 2.13,-20.18 8.5,-1.54 12.75,-2.17 12.75,-2.17 0,0 4.13,-5.94 7.73,-8.06 5.21,-0.48 23.37,-3.09 23.37,-3.09 0,0 -16.97,15.5 -0.7,31.96 6.69,0 14.65,0.01 14.65,0.01 0,0 -0.34,2.45 -0.82,4.86 -1.45,0.14 -2.22,0.2 -2.8,0.24 -0.19,7.53 -4.73,12.46 -4.73,12.46 0,0 8.5,1.06 14.19,4.54 C 49.9,76.6 46.91,98.71 17.74,88.76 Z"
         id="path22"
         style="fill:#b01c2e;stroke-width:0px" />
      <path
         class="cls-2"
         d="m 138.18,136.1 c 0,0 -0.48,-0.24 0.43,-1 0.11,-0.09 0.29,0.11 0.81,0.12 0.71,0 1.08,-0.24 1.67,-0.95 0.89,-1.08 -0.97,-1.49 -1.57,-0.97 -0.66,0.57 -1.14,1.15 -1.7,1.67 0,0 -0.95,0.85 0.36,1.12 z"
         id="path23"
         style="fill:#b01c2e;stroke-width:0px" />
      <path
         class="cls-2"
         d="M 99.8,207.11 C 67.97,186.23 43.49,217.73 0,195.91 c 0,0 0,14.55 0,14.55 55.33,13.47 56.93,-15.93 99.8,0 z"
         id="path24"
         style="fill:#b01c2e;stroke-width:0px" />
      <path
         class="cls-2"
         d="M 44.73,187.69 C 17.08,187.89 0,171.16 0,171.16 c 0,0 0,13.13 0,13.13 39.66,27.07 65.64,-3.56 99.8,19.46 v -3.53 C 91.6,193.84 81.03,187.43 44.72,187.69 Z"
         id="path25"
         style="fill:#b01c2e;stroke-width:0px" />
      <path
         class="cls-2"
         d="m 70.23,183.83 c 3.7,0.75 6.9,1.56 9.69,2.4 7.24,2.38 13.94,5.96 19.87,10.49 V 110.37 C 89.29,105.97 80.5,104.98 72.4,105.59 V 152 L 61.59,141.16 50.78,152 v -41.95 c -14.03,3.8 -28.91,7.5 -50.8,0.32 0.02,0.9 0.02,23.58 0.02,43.34 0,0 11.39,24.23 42.15,26.52 11.72,0.87 20.85,2.13 28.08,3.6"
         id="path26"
         style="fill:#b01c2e;stroke-width:0px" />
    </g>
  </g>
</svg>
